<?xml version="1.0" encoding="UTF-8"?>
<svg width="120.01mm" height="16.934mm" version="1.1" viewBox="0 0 120.01 16.934" xmlns="http://www.w3.org/2000/svg">
<g transform="translate(-52.81 -79.336)" stroke="#000" stroke-linecap="round" stroke-linejoin="round" stroke-miterlimit="6" stroke-width="0">
<g style="paint-order:stroke fill markers" aria-label="Seeker">
<path d="m66.981 85.161q-0.0248 0.11576-0.10749 0.1819-0.08268 0.06615-0.1819 0.06615-0.14883 0-0.23978-0.09095-0.09095-0.09922-0.09095-0.22324t0.02481-0.23978q0.02481-0.12402 0.02481-0.23978 0-0.60358-0.37207-1.0831-0.37207-0.47956-1.0583-0.80202-0.67799-0.33073-1.6536-0.50436-0.97565-0.17363-2.1745-0.17363-0.91777 0-1.8521 0.12402-0.92604 0.11576-1.7859 0.34726-0.85163 0.22324-1.5958 0.57051-0.74414 0.339-1.2981 0.79375-0.5457 0.44648-0.85989 1.0005-0.31419 0.5457-0.31419 1.1989 0 0.50436 0.21497 0.89297 0.22324 0.38034 0.60358 0.66972 0.38034 0.28112 0.89297 0.48782 0.5209 0.19844 1.1245 0.339 0.60358 0.13229 1.2568 0.22324 0.65319 0.08268 1.3146 0.14056l1.2733 0.10749q0.95084 0.08268 1.7033 0.17363 0.75241 0.09095 1.3229 0.23151 0.95084 0.23978 1.4056 0.68626 0.45475 0.44648 0.45475 1.1906 0 0.71934-0.39688 1.265-0.39687 0.5457-1.0831 0.91777-0.68626 0.37207-1.604 0.56224-0.91777 0.19017-1.9678 0.19017-1.141 0-2.0092-0.1571-0.85989-0.14883-1.4469-0.33073-0.57878-0.19017-0.8847-0.34726t-0.33073-0.17363q-0.14883-0.08268-0.14883-0.26458 0-0.14056 0.09922-0.22324 0.09922-0.09095 0.21497-0.09095 0.09095 0 0.16536 0.04961 0.0083 0 0.28112 0.14883 0.28112 0.14056 0.82682 0.31419 0.55397 0.17363 1.3643 0.31419 0.81028 0.14056 1.8852 0.14056 1.0666 0 1.8852-0.17363 0.81855-0.17363 1.3725-0.47956 0.56224-0.31419 0.84336-0.7276 0.28939-0.42168 0.28939-0.9095 0-0.28939-0.10749-0.49609-0.09922-0.21497-0.28112-0.3638-0.1819-0.1571-0.43822-0.26458-0.24805-0.10749-0.5457-0.1819-0.31419-0.08268-0.67799-0.14056-0.35553-0.05788-0.73587-0.09922t-0.76894-0.07441q-0.38034-0.03307-0.75241-0.06615l-1.2733-0.10749q-1.5048-0.12402-2.6293-0.38034-1.1162-0.26458-1.8603-0.66973-0.74414-0.41341-1.1162-0.98392t-0.37207-1.3312q0-0.77721 0.34726-1.4221 0.35553-0.65319 0.95911-1.1741 0.61185-0.5209 1.4221-0.90124 0.81855-0.38861 1.7446-0.64492 0.92604-0.25631 1.9182-0.38034 0.99219-0.13229 1.9513-0.13229 1.1989 0 2.0836 0.14883 0.89297 0.14056 1.5214 0.37207 0.63665 0.22324 1.0418 0.51263 0.40514 0.28939 0.65319 0.57051 0.58704 0.68626 0.58704 1.5627 0 0.28939-0.05788 0.55397z"/>
<path d="m67.187 92.933q0.17363 0.23978 0.44648 0.38861 0.27285 0.14056 0.66972 0.14056 0.40514 0 0.73587-0.19017 0.33073-0.19844 0.60358-0.51263t0.48782-0.7028 0.38861-0.77721q0.04134-0.09095 0.11576-0.13229 0.07441-0.04961 0.16536-0.04961 0.14056 0 0.22324 0.09922 0.09095 0.09922 0.09095 0.21497 0 0.04134-0.0083 0.07441-0.0083 0.0248-0.0248 0.05788-0.57051 1.2568-1.2485 1.8934-0.66973 0.63665-1.5214 0.65319-0.5457 0-0.94258-0.21497-0.39687-0.2067-0.65319-0.53743-0.25631-0.339-0.38034-0.76068-0.12402-0.42168-0.12402-0.84336t0.09922-0.77721q0.10749-0.35553 0.29766-0.62012 0.19844-0.26458 0.46302-0.41341 0.27285-0.14883 0.59531-0.14883 0.19017 0 0.37207 0.08268 0.19017 0.07441 0.339 0.22324 0.14883 0.14056 0.23978 0.34726 0.09095 0.20671 0.09095 0.47129 0 0.339-0.11576 0.63665t-0.32246 0.55397q-0.19844 0.25632-0.47956 0.47129t-0.60358 0.37207zm-0.24805-0.53743q0.25632-0.10749 0.46302-0.27285 0.21497-0.16536 0.3638-0.3638t0.23151-0.41341q0.08268-0.22324 0.08268-0.44648 0-0.24805-0.12402-0.37207-0.12402-0.13229-0.28939-0.13229-0.22324 0-0.38034 0.12402t-0.25632 0.32246-0.14883 0.44648q-0.04134 0.23978-0.04134 0.47956 0 0.14883 0.0248 0.31419 0.03307 0.16536 0.07441 0.31419z"/>
<path d="m71.512 92.933q0.17363 0.23978 0.44648 0.38861 0.27285 0.14056 0.66972 0.14056 0.40514 0 0.73587-0.19017 0.33073-0.19844 0.60358-0.51263t0.48782-0.7028 0.38861-0.77721q0.04134-0.09095 0.11576-0.13229 0.07441-0.04961 0.16536-0.04961 0.14056 0 0.22324 0.09922 0.09095 0.09922 0.09095 0.21497 0 0.04134-0.0083 0.07441-0.0083 0.0248-0.0248 0.05788-0.57051 1.2568-1.2485 1.8934-0.66973 0.63665-1.5214 0.65319-0.5457 0-0.94258-0.21497-0.39685-0.2067-0.65316-0.53743-0.25631-0.339-0.38034-0.76068-0.12402-0.42168-0.12402-0.84336t0.09922-0.77721q0.10749-0.35553 0.29766-0.62012 0.19844-0.26458 0.46302-0.41341 0.27285-0.14883 0.59531-0.14883 0.19017 0 0.37207 0.08268 0.19017 0.07441 0.339 0.22324 0.14883 0.14056 0.23978 0.34726 0.09095 0.20671 0.09095 0.47129 0 0.339-0.11576 0.63665t-0.32246 0.55397q-0.19844 0.25632-0.47956 0.47129t-0.60358 0.37207zm-0.24805-0.53743q0.25632-0.10749 0.46302-0.27285 0.21497-0.16536 0.3638-0.3638t0.23151-0.41341q0.08268-0.22324 0.08268-0.44648 0-0.24805-0.12402-0.37207-0.12402-0.13229-0.28939-0.13229-0.22324 0-0.38034 0.12402t-0.25632 0.32246-0.14883 0.44648q-0.04134 0.23978-0.04134 0.47956 0 0.14883 0.0248 0.31419 0.03307 0.16536 0.07441 0.31419z"/>
<path d="m76.927 92.826q0.14056 0.31419 0.46302 0.50436 0.32246 0.1819 0.7276 0.1819 0.12402 0 0.40514-0.03307 0.28112-0.04134 0.64492-0.24805 0.37207-0.21497 0.78548-0.66973 0.41341-0.45475 0.80202-1.2816 0.04134-0.09095 0.11576-0.13229 0.07441-0.04961 0.16536-0.04961 0.14056 0 0.22324 0.09922 0.09095 0.09922 0.09095 0.21497 0 0.04961-0.03307 0.13229-0.28939 0.60358-0.64492 1.0831-0.35553 0.47129-0.76894 0.81028-0.41341 0.33073-0.86816 0.50436-0.44648 0.1819-0.91777 0.1819-0.37207 0-0.7028-0.11576-0.32246-0.11576-0.56224-0.30592-0.23151-0.19844-0.37207-0.43822-0.13229-0.24805-0.13229-0.50436 0-0.03307 0.0083-0.09095t0.04134-0.12402q0.04134-0.07441 0.10749-0.13229 0.07441-0.06615 0.19844-0.10749 0.339-0.09922 0.62012-0.23978 0.28939-0.14883 0.49609-0.33073t0.32246-0.39687q0.11576-0.22324 0.11576-0.47956 0-0.22324-0.14883-0.3638t-0.3638-0.14056q-0.22324 0-0.43822 0.1571-0.21497 0.14883-0.42168 0.40514-0.19844 0.24805-0.38034 0.57878-0.1819 0.32246-0.339 0.67799-0.14883 0.35553-0.26458 0.71107-0.11576 0.34726-0.19017 0.64492-0.0248 0.09095-0.05788 0.19844-0.0248 0.10749-0.08268 0.19844-0.05788 0.09922-0.14056 0.1571-0.08268 0.06615-0.21497 0.06615-0.12402 0-0.23978-0.10749-0.11576-0.09922-0.11576-0.34726 0-0.04961 0-0.38034 0.0083-0.33073 0.01654-0.85989 0.0083-0.53743 0.01654-1.2237 0.01654-0.69453 0.02481-1.4635 0.0083-0.77721 0.0248-1.5958 0.01654-0.81855 0.02481-1.5958 0.0083-0.77721 0.01654-1.4717 0.01654-0.7028 0.0248-1.2402 0.0083-0.5457 0.0083-0.8847 0.0083-0.34726 0.0083-0.41341 0-0.13229 0.09922-0.21497 0.09922-0.09095 0.21497-0.09095 0.13229 0 0.22324 0.09095 0.09095 0.08268 0.09095 0.22324 0 0.01654-0.0083 0.33073 0 0.30592-0.0083 0.82682t-0.0248 1.2154q-0.0083 0.69453-0.02481 1.48-0.0083 0.77721-0.02481 1.604-0.0083 0.82682-0.0248 1.6123-0.0083 0.78548-0.01654 1.4965-0.0083 0.71107-0.01654 1.2568 0.13229-0.42168 0.339-0.8847 0.2067-0.47129 0.48782-0.86816t0.62838-0.65319q0.35553-0.25632 0.78548-0.25632 0.23978 0 0.44648 0.09095 0.2067 0.08268 0.35553 0.23978 0.1571 0.14883 0.23978 0.35553 0.09095 0.2067 0.09095 0.44648 0 0.37207-0.16536 0.68626-0.16536 0.30592-0.43822 0.55397-0.27285 0.23978-0.62838 0.42168-0.34726 0.1819-0.71933 0.29766z"/>
<path d="m81.748 92.933q0.17363 0.23978 0.44648 0.38861 0.27285 0.14056 0.66972 0.14056 0.40514 0 0.73587-0.19017 0.33073-0.19844 0.60358-0.51263t0.48782-0.7028 0.38861-0.77721q0.04134-0.09095 0.11576-0.13229 0.07441-0.04961 0.16536-0.04961 0.14056 0 0.22324 0.09922 0.09095 0.09922 0.09095 0.21497 0 0.04134-0.0083 0.07441-0.0083 0.0248-0.0248 0.05788-0.57051 1.2568-1.2485 1.8934-0.66972 0.63665-1.5214 0.65319-0.5457 0-0.94258-0.21497-0.39687-0.2067-0.65319-0.53743-0.25631-0.339-0.38034-0.76068-0.12402-0.42168-0.12402-0.84336t0.09922-0.77721q0.10749-0.35553 0.29766-0.62012 0.19844-0.26458 0.46302-0.41341 0.27285-0.14883 0.59531-0.14883 0.19017 0 0.37207 0.08268 0.19017 0.07441 0.339 0.22324 0.14883 0.14056 0.23978 0.34726 0.09095 0.20671 0.09095 0.47129 0 0.339-0.11576 0.63665t-0.32246 0.55397q-0.19844 0.25632-0.47956 0.47129t-0.60358 0.37207zm-0.24805-0.53743q0.25631-0.10749 0.46302-0.27285 0.21497-0.16536 0.3638-0.3638t0.23151-0.41341q0.08268-0.22324 0.08268-0.44648 0-0.24805-0.12402-0.37207-0.12402-0.13229-0.28939-0.13229-0.22324 0-0.38034 0.12402t-0.25632 0.32246-0.14883 0.44648q-0.04134 0.23978-0.04134 0.47956 0 0.14883 0.02481 0.31419 0.03307 0.16536 0.07441 0.31419z"/>
<path d="m85.948 90.444q-0.03307 0.22324-0.08268 0.42168-0.04961 0.19017-0.09922 0.339-0.04134 0.14056-0.07441 0.23151t-0.04134 0.09922q-0.08268 0.19017-0.28939 0.19017-0.11576 0-0.21497-0.08268-0.09922-0.09095-0.09922-0.22324 0-0.04961 0.01654-0.07441 0.01654-0.02481 0.04961-0.09922t0.08268-0.24805q0.04961-0.17363 0.12402-0.53743-0.14056 0-0.28939-0.0083t-0.27285-0.05788q-0.13229-0.04961-0.21497-0.1571t-0.08268-0.29766q0-0.14056 0.08268-0.38034 0.07441-0.23978 0.2067-0.47129t0.29766-0.39687q0.16536-0.17363 0.33073-0.17363 0.19017 0 0.30592 0.14056 0.12402 0.14056 0.19017 0.34726 0.06615 0.19844 0.09095 0.42168 0.03307 0.22324 0.03307 0.38861 0.14056 0 0.27285 0 0.14056-0.0083 0.26458-0.0083 0.47129 0 0.71934 0.20671 0.24805 0.2067 0.24805 0.67799 0 0.19017-0.02481 0.39687-0.0248 0.20671-0.05788 0.42995-0.03307 0.21497-0.05788 0.42995-0.02481 0.21497-0.02481 0.42168 0 0.29766 0.08268 0.49609 0.08268 0.19017 0.2067 0.30592 0.12402 0.11576 0.26458 0.16536 0.14056 0.04134 0.25632 0.04134 0.35553 0 0.66972-0.23151t0.57878-0.55397q0.26458-0.33073 0.47129-0.69453 0.21497-0.3638 0.35553-0.63665 0.04134-0.07441 0.11576-0.11576 0.07441-0.04134 0.1571-0.04134 0.14883 0 0.23151 0.09922 0.08268 0.09095 0.08268 0.20671 0 0.08268-0.03307 0.14883-0.19017 0.339-0.44648 0.76894-0.24805 0.42168-0.57051 0.79375t-0.7276 0.62838q-0.39688 0.25632-0.87643 0.25632-0.29766 0-0.56224-0.11576-0.26458-0.10749-0.46302-0.31419-0.19017-0.21497-0.30592-0.5209-0.11576-0.31419-0.11576-0.7028 0-0.41341 0.08268-0.81855 0.08268-0.41341 0.08268-0.78548 0-0.1571-0.07441-0.23151-0.06615-0.08268-0.30592-0.08268-0.11576 0-0.25631 0-0.13229 0-0.28939 0.0083zm-0.55397-0.61185q0-0.05788-0.0083-0.14883 0-0.09922-0.01654-0.19017-0.0083-0.09095-0.03307-0.1571-0.01654-0.06614-0.04134-0.06614t-0.06615 0.06614q-0.03307 0.05788-0.07441 0.14883-0.04134 0.08268-0.07441 0.1819t-0.04961 0.16536z"/>
</g>
<g style="paint-order:stroke fill markers" aria-label="Orlando">
<path d="m103.6 88.141q0 1.7385-0.56444 3.2286-0.56445 1.4676-1.5804 2.5739t-2.4158 1.7159q-1.3998 0.6096-3.048 0.6096-1.6708 0-3.0706-0.6096-1.3772-0.6096-2.3932-1.7159t-1.5804-2.5739q-0.56444-1.4901-0.56444-3.2286 0-1.7611 0.56444-3.2286 0.56444-1.4901 1.5804-2.5739 1.016-1.1063 2.3932-1.7159 1.3998-0.6096 3.0706-0.6096 1.6482 0 3.048 0.6096t2.4158 1.7159q1.016 1.0837 1.5804 2.5739 0.56444 1.4676 0.56444 3.2286zm-1.9417 0q0-1.8514-0.74506-3.2738-0.72249-1.4224-1.9869-2.2352-1.2644-0.8128-2.9351-0.8128-1.6708 0-2.9577 0.8128-1.2644 0.8128-1.9868 2.2352-0.72249 1.4224-0.72249 3.2738 0 1.8288 0.72249 3.2738 0.72249 1.4224 1.9868 2.2352 1.2869 0.8128 2.9577 0.8128t2.9351-0.8128q1.2644-0.8128 1.9869-2.2352 0.74506-1.445 0.74506-3.2738z"/>
<path d="m107.19 96.044q-0.38382 0-0.65475-0.27093-0.24836-0.27093-0.24836-0.65476v-9.8439q0-0.38382 0.24836-0.63218 0.27093-0.27093 0.65475-0.27093 0.4064 0 0.65476 0.27093 0.24836 0.24836 0.24836 0.63218v2.9803l-0.27094-0.47413q0.13547-0.69991 0.47414-1.3547 0.36124-0.67733 0.90311-1.1966 0.54186-0.54187 1.2418-0.83538 0.69991-0.31609 1.5353-0.31609 0.49671 0 0.90311 0.24836 0.42898 0.22578 0.42898 0.65476 0 0.47413-0.24836 0.69991-0.24835 0.22578-0.56444 0.22578-0.29352 0-0.56445-0.11289-0.27093-0.13547-0.67733-0.13547-0.56445 0-1.1289 0.31609-0.54187 0.29351-1.016 0.85796-0.45156 0.56444-0.74507 1.2869-0.27093 0.69991-0.27093 1.5127v5.4864q0 0.38382-0.27094 0.65476-0.24835 0.27093-0.63218 0.27093z"/>
<path d="m117.32 95.118q0 0.38382-0.27093 0.65476t-0.65476 0.27093q-0.38382 0-0.63217-0.27093-0.24836-0.27093-0.24836-0.65476v-14.879q0-0.38382 0.24836-0.63218 0.27093-0.27093 0.65475-0.27093 0.4064 0 0.65476 0.27093 0.24835 0.24836 0.24835 0.63218z"/>
<path d="m130.44 84.258q0.38382 0 0.63218 0.27093 0.27093 0.24836 0.27093 0.63218v9.9568q0 0.38382-0.27093 0.65476-0.24836 0.27093-0.63218 0.27093-0.4064 0-0.65476-0.27093-0.24835-0.27093-0.24835-0.65476v-2.1449l0.42898-0.04516q0 0.49671-0.33867 1.0837-0.33867 0.58702-0.92569 1.1063-0.58702 0.49671-1.3998 0.83538-0.79022 0.31609-1.7159 0.31609-1.5353 0-2.7545-0.79022-1.2192-0.8128-1.9417-2.19-0.69991-1.3772-0.69991-3.1383 0-1.7836 0.69991-3.1383 0.72249-1.3772 1.9417-2.1449 1.2192-0.79022 2.7093-0.79022 0.97084 0 1.8062 0.31609 0.83538 0.31609 1.445 0.85796 0.63218 0.54187 0.97085 1.1966 0.36124 0.65476 0.36124 1.3095l-0.58702-0.13547v-2.461q0-0.38382 0.24835-0.63218 0.24836-0.27093 0.65476-0.27093zm-4.651 10.341q1.1289 0 1.9868-0.58702 0.88053-0.58702 1.3547-1.5804 0.49671-1.016 0.49671-2.2804 0-1.2418-0.49671-2.2352-0.47414-1.016-1.3547-1.5804-0.85796-0.58702-1.9868-0.58702-1.1063 0-1.9868 0.56444-0.85796 0.56444-1.3547 1.5579-0.49671 0.99342-0.49671 2.2804 0 1.2644 0.47413 2.2804 0.49671 0.99342 1.3547 1.5804 0.88053 0.58702 2.0094 0.58702z"/>
<path d="m140.49 84.077q1.5353 0 2.4158 0.63218 0.88053 0.63218 1.2418 1.6933 0.38382 1.0612 0.38382 2.3707v6.3444q0 0.38382-0.27093 0.65476-0.24836 0.27093-0.63218 0.27093t-0.65476-0.27093q-0.24835-0.27093-0.24835-0.65476v-6.2992q0-0.85796-0.27094-1.5353-0.24835-0.69991-0.85795-1.1063-0.58703-0.42898-1.6256-0.42898-0.94827 0-1.7385 0.42898-0.79022 0.4064-1.2644 1.1063-0.47414 0.67733-0.47414 1.5353v6.2992q0 0.38382-0.27093 0.65476-0.24836 0.27093-0.63218 0.27093t-0.65475-0.27093q-0.24836-0.27093-0.24836-0.65476v-9.8439q0-0.38382 0.24836-0.63218 0.27093-0.27093 0.65475-0.27093 0.4064 0 0.65476 0.27093 0.24835 0.24836 0.24835 0.63218v1.603l-0.45155 0.49671q0.11289-0.58702 0.51929-1.174 0.4064-0.6096 1.016-1.0837t1.3547-0.74507q0.74506-0.29351 1.5579-0.29351z"/>
<path d="m157.49 79.336q0.38382 0 0.63218 0.27093 0.27093 0.24836 0.27093 0.63218v14.879q0 0.38382-0.27093 0.65476-0.24836 0.27093-0.63218 0.27093-0.4064 0-0.65475-0.27093-0.24836-0.27093-0.24836-0.65476v-2.1449l0.42898-0.15804q0 0.54187-0.33867 1.1515-0.33867 0.58702-0.92569 1.1063-0.58702 0.51929-1.3998 0.85796-0.79023 0.33867-1.7159 0.33867-1.5127 0-2.7545-0.79022-1.2192-0.79022-1.9417-2.1675-0.69991-1.3772-0.69991-3.1383 0-1.7836 0.69991-3.1609 0.72249-1.3772 1.9417-2.1449 1.2192-0.79022 2.7093-0.79022 0.94827 0 1.7836 0.31609 0.83537 0.31609 1.445 0.85796 0.63218 0.54187 0.99343 1.1966 0.36124 0.65476 0.36124 1.3095l-0.58702-0.13547v-7.3829q0-0.38382 0.24836-0.63218 0.24835-0.27093 0.65475-0.27093zm-4.651 15.263q1.1289 0 1.9868-0.56444 0.88054-0.58702 1.3547-1.5804 0.49671-1.016 0.49671-2.2804 0-1.2869-0.49671-2.2804-0.47413-0.99342-1.3547-1.5579-0.85796-0.58702-1.9868-0.58702-1.1063 0-1.9868 0.58702-0.85796 0.56444-1.3547 1.5579-0.49671 0.99342-0.49671 2.2804 0 1.2418 0.49671 2.2578 0.49671 0.99342 1.3547 1.5804 0.88053 0.58702 1.9868 0.58702z"/>
<path d="m172.82 90.173q0 1.7611-0.79022 3.1383-0.76765 1.3772-2.0997 2.1675-1.3095 0.79022-2.9577 0.79022t-2.9803-0.79022-2.1223-2.1675q-0.76765-1.3772-0.76765-3.1383t0.76765-3.1383q0.79022-1.3772 2.1223-2.1675t2.9803-0.79022 2.9577 0.79022q1.3321 0.79022 2.0997 2.1675 0.79022 1.3772 0.79022 3.1383zm-1.8062 0q0-1.3095-0.54187-2.3029-0.51929-0.99342-1.445-1.5579-0.90311-0.56444-2.0546-0.56444t-2.0772 0.56444q-0.90311 0.56444-1.445 1.5579-0.54187 0.99342-0.54187 2.3029 0 1.2869 0.54187 2.2804 0.54186 0.99342 1.445 1.5804 0.92569 0.56444 2.0772 0.56444t2.0546-0.56444q0.92569-0.58702 1.445-1.5804 0.54187-0.99342 0.54187-2.2804z"/>
</g>
</g>
</svg>
