<?xml version="1.0" encoding="UTF-8"?>
<svg width="72.447mm" height="11.06mm" version="1.1" viewBox="0 0 72.447 11.06" xmlns="http://www.w3.org/2000/svg">
<g transform="translate(-58.845 -50.534)" stroke="#000" stroke-linecap="round" stroke-linejoin="round" stroke-miterlimit="6" stroke-width="0">
<g style="paint-order:stroke fill markers" aria-label="Orlando">
<path d="m85.375 60.408q0.82682 0 1.571-0.31006 0.75103-0.31695 1.3505-0.91639 0.59256-0.59256 0.90261-1.3436 0.31006-0.75103 0.31006-1.5916 0-0.84749-0.31695-1.6123-0.31006-0.76481-0.89572-1.3505-0.59256-0.59256-1.3436-0.90262-0.74414-0.31006-1.5779-0.31006-0.8406 0-1.5916 0.31006-0.75103 0.31006-1.3298 0.90262-0.59256 0.59945-0.90261 1.3574-0.31006 0.75792-0.31006 1.6054 0 0.8406 0.30317 1.5847 0.31006 0.74414 0.9095 1.3505 0.60634 0.60634 1.3436 0.91639 0.74414 0.31006 1.5779 0.31006zm5.3881-4.1617q0 1.0818-0.39963 2.0395-0.39963 0.95774-1.1644 1.7019-0.76481 0.74414-1.7639 1.1507-0.99219 0.39963-2.0602 0.39963t-2.0602-0.39963q-0.9853-0.40652-1.7501-1.1507-0.7717-0.75103-1.1782-1.7088-0.39963-0.95774-0.39963-2.0326 0-1.0818 0.39963-2.0395 0.40652-0.96463 1.1782-1.7157 0.75792-0.73725 1.7501-1.1369 0.99219-0.39963 2.0602-0.39963 1.0749 0 2.0671 0.39963 0.99908 0.39963 1.757 1.1369 0.76481 0.74414 1.1644 1.7088 0.39963 0.95774 0.39963 2.0464z"/>
<path d="m92.631 61.269v-6.3045h0.95774v1.3091q0.43408-0.81993 0.92328-1.1713 0.4892-0.3514 1.192-0.3514 0.19293 0 0.37207 0.03445 0.17914 0.02756 0.35829 0.08957l-0.35829 0.97152q-0.18604-0.06201-0.3514-0.08957-0.16536-0.03445-0.31695-0.03445-0.85438 0-1.2816 0.62012-0.42719 0.61323-0.42719 1.8535v3.073z"/>
<path d="m97.626 61.269v-10.68h1.1024v10.68z"/>
<path d="m105.81 58.176q0-1.068-0.58566-1.7157-0.57878-0.65457-1.5158-0.65457-0.97151 0-1.5158 0.59945-0.54432 0.59945-0.54432 1.6743 0 1.1438 0.54432 1.7639 0.55122 0.62012 1.5572 0.62012 0.96462 0 1.509-0.59945 0.55121-0.60634 0.55121-1.6881zm1.0473-3.2108v6.3045h-1.0473v-1.1438q-0.37896 0.68902-0.97151 1.0542-0.58567 0.35829-1.316 0.35829-1.3574 0-2.1911-0.93018-0.82682-0.93706-0.82682-2.4736 0-1.5572 0.80615-2.4736 0.80615-0.92328 2.1566-0.92328 0.79237 0 1.3712 0.35829 0.58566 0.3514 0.94395 1.0542v-1.1851z"/>
<path d="m109.02 61.269v-6.3045h1.0542v0.97152q0.40652-0.60634 0.9784-0.90261 0.57189-0.29628 1.3229-0.29628 1.1162 0 1.7432 0.59256 0.62701 0.59256 0.62701 1.6468v4.2926h-1.1024v-3.7138q0-0.95774-0.40652-1.4194-0.39963-0.46853-1.2402-0.46853-0.48232 0-0.88195 0.17914-0.39274 0.17225-0.65456 0.49609-0.19982 0.24805-0.28939 0.565-0.0827 0.31695-0.0827 1.1024v3.2591z"/>
<path d="m121.7 58.148q0-1.0542-0.58567-1.695-0.58566-0.64768-1.5434-0.64768-0.95773 0-1.4952 0.58566-0.53743 0.58567-0.53743 1.6192 0 1.1644 0.54432 1.8259 0.54433 0.65457 1.5021 0.65457 0.99219 0 1.5503-0.62012 0.565-0.62012 0.565-1.7225zm1.0473-7.5585v10.68h-1.0473v-1.1438q-0.37207 0.68213-0.96463 1.0473-0.59255 0.36518-1.3229 0.36518-1.3574 0-2.1911-0.93018-0.82682-0.93706-0.82682-2.4736 0-1.5503 0.81304-2.4736t2.1635-0.92328q0.78548 0 1.3642 0.35829 0.57878 0.3514 0.93707 1.0542v-5.5604z"/>
<path d="m125.58 58.134q0 0.99908 0.66835 1.695 0.66835 0.68902 1.6192 0.68902 0.94395 0 1.6054-0.68902 0.66146-0.69591 0.66146-1.695t-0.66146-1.6881q-0.66146-0.69591-1.6054-0.69591-0.95774 0-1.6261 0.69591-0.66146 0.68902-0.66146 1.6881zm-1.1438 0q0-0.69591 0.25494-1.3091 0.25494-0.62012 0.74414-1.1024t1.1093-0.73036q0.62012-0.25494 1.3229-0.25494 0.68902 0 1.3022 0.25494 0.62012 0.25494 1.1231 0.74414 0.48921 0.47542 0.74414 1.0955 0.25494 0.61323 0.25494 1.3022 0 0.68902-0.25494 1.3022-0.25493 0.60634-0.74414 1.0818-0.50298 0.49609-1.13 0.75792-0.62012 0.26183-1.2954 0.26183-0.69591 0-1.3229-0.26183-0.62012-0.25494-1.1093-0.73725-0.4892-0.49609-0.74414-1.1024-0.25494-0.60634-0.25494-1.3022z"/>
</g>
<g style="paint-order:stroke fill markers" aria-label="Seeker">
<path d="m61.973 51.586q-0.4064-0.03387-0.79586 0.1524-0.37253 0.18627-0.67733 0.52493-0.3048 0.32173-0.508 0.77893-0.18627 0.44027-0.23707 0.93133-0.0508 0.5588 0.0508 1.016 0.11853 0.4572 0.32173 0.82973 0.22013 0.3556 0.508 0.6604 0.3048 0.28787 0.64346 0.54187 0.4064 0.3048 0.8128 0.62653 0.42333 0.32173 0.72813 0.7112 0.3048 0.38947 0.44027 0.88053 0.13547 0.47413-0.01693 1.1007-0.1016 0.44027-0.37253 0.69426-0.254 0.254-0.5588 0.38947-0.3048 0.11853-0.59266 0.1524-0.28787 0.01693-0.44027 0.01693-0.6096-0.03387-1.1515-0.254-0.52493-0.22013-0.8636-0.6096-0.32173-0.4064-0.4064-0.9652-0.06773-0.57573 0.22013-1.3039 0.0508-0.1524 0.13547-0.22013 0.1016-0.08467 0.16933-0.06773 0.08467 0.01693 0.1016 0.1524 0.03387 0.11853-0.0508 0.37253-0.11853 0.3556-0.1524 0.762-0.01693 0.4064 0.1524 0.77893 0.18627 0.3556 0.62653 0.62653 0.44026 0.254 1.2361 0.32173 0.2032 0.01693 0.44027-0.01693 0.23707-0.03387 0.4572-0.13547 0.23707-0.1016 0.4064-0.28787 0.16933-0.2032 0.254-0.508 0.11853-0.49107-0.03387-0.9144-0.13547-0.42333-0.42333-0.762-0.28787-0.3556-0.6604-0.64346-0.37253-0.3048-0.7112-0.54187-1.9135-1.3547-1.6764-3.4713 0.0508-0.49107 0.23707-0.98213 0.2032-0.508 0.54187-0.89746 0.33867-0.4064 0.8128-0.64346 0.49107-0.23707 1.1176-0.2032 0.44027 0.03387 0.9144 0.3556 0.49107 0.3048 0.67733 0.9144 0.0508 0.16933-0.03387 0.23707-0.06773 0.06773-0.18627 0.03387-0.03387-0.01693-0.11853-0.0508-0.06773-0.03387-0.1524-0.06773-0.08467-0.0508-0.1524-0.08467-0.06773-0.0508-0.08467-0.08467-0.03387-0.08467 0.06773-0.1016 0.1016-0.03387 0.06773-0.1016-0.1524-0.254-0.4064-0.42333-0.254-0.18627-0.67733-0.22013z"/>
<path d="m64.31 58.698q-0.38947-0.1524-0.59266-0.49107-0.18627-0.3556-0.2032-0.77893-0.01693-0.44027 0.11853-0.88053 0.13547-0.4572 0.37253-0.8128 0.254-0.3556 0.59266-0.5588 0.33867-0.22013 0.72813-0.16933 0.44027 0.0508 0.47413 0.42333 0.0508 0.3556-0.18627 0.8128-0.23707 0.44027-0.69426 0.82973t-1.016 0.49107q0.03387 0.16933 0.1016 0.4064 0.08467 0.22013 0.3048 0.3556 0.27093 0.1524 0.64347 0.01693 0.37253-0.1524 0.74506-0.44026 0.38947-0.3048 0.72813-0.67733 0.3556-0.37253 0.57573-0.6604 0.06773-0.08467 0.1524 0.01693 0.1016 0.1016-0.08467 0.33867-0.2032 0.254-0.5588 0.6096-0.33867 0.3556-0.72813 0.6604-0.38947 0.3048-0.77893 0.47413-0.38947 0.1524-0.69427 0.03387zm-0.44027-1.4901q0.254 0.01693 0.57573-0.2032 0.32173-0.22013 0.57573-0.508 0.254-0.28787 0.37253-0.59267 0.13547-0.3048-0.01693-0.47413-0.18627-0.2032-0.4572-0.0508t-0.52493 0.47413q-0.23707 0.32173-0.4064 0.7112-0.1524 0.38947-0.11853 0.64346z"/>
<path d="m67.68 58.698q-0.38947-0.1524-0.59267-0.49107-0.18627-0.3556-0.2032-0.77893-0.01693-0.44027 0.11853-0.88053 0.13547-0.4572 0.37253-0.8128 0.254-0.3556 0.59267-0.5588 0.33867-0.22013 0.72813-0.16933 0.44027 0.0508 0.47413 0.42333 0.0508 0.3556-0.18627 0.8128-0.23707 0.44027-0.69426 0.82973t-1.016 0.49107q0.03387 0.16933 0.1016 0.4064 0.08467 0.22013 0.3048 0.3556 0.27093 0.1524 0.64346 0.01693 0.37253-0.1524 0.74506-0.44026 0.38947-0.3048 0.72813-0.67733 0.3556-0.37253 0.57573-0.6604 0.06773-0.08467 0.1524 0.01693 0.1016 0.1016-0.08467 0.33867-0.2032 0.254-0.5588 0.6096-0.33867 0.3556-0.72813 0.6604-0.38947 0.3048-0.77893 0.47413-0.38947 0.1524-0.69426 0.03387zm-0.44027-1.4901q0.254 0.01693 0.57573-0.2032 0.32173-0.22013 0.57573-0.508 0.254-0.28787 0.37253-0.59267 0.13547-0.3048-0.01693-0.47413-0.18627-0.2032-0.4572-0.0508-0.27093 0.1524-0.52493 0.47413-0.23707 0.32173-0.4064 0.7112-0.1524 0.38947-0.11853 0.64346z"/>
<path d="m70.711 56.988q-0.11853-0.11853-0.254-0.16933-0.11853-0.0508-0.11853-0.18627 0-0.18627 0.11853-0.254 0.13547-0.08467 0.27093-0.27093 0.01693-0.4572 0.01693-1.1007 0.01693-0.64346 0.01693-1.3547 0.01693-0.7112 0.0508-1.4224 0.0508-0.7112 0.13547-1.3039 0.01693-0.16933 0.08467-0.27093 0.08467-0.11853 0.1524-0.11853 0.08467-0.01693 0.13547 0.08467 0.0508 0.08467 0.03387 0.3048-0.0508 0.74506-0.08467 1.524-0.01693 0.77893-0.0508 1.4732-0.01693 0.67733-0.03387 1.1853 0 0.508-0.01693 0.7112 0.1524-0.11853 0.508-0.37253 0.3556-0.27093 0.74506-0.5588 0.38947-0.3048 0.72813-0.5588 0.3556-0.254 0.508-0.38947 0.11853-0.1016 0.23707-0.1016 0.13547-0.01693 0.22013 0.03387 0.08467 0.03387 0.08467 0.13547 0 0.08467-0.11853 0.18627-0.3048 0.23707-0.69426 0.508-0.37253 0.27093-0.77893 0.57573-0.38947 0.28787-0.762 0.57573-0.37253 0.28787-0.64347 0.54187v0.254q1.2023 0.6096 2.032 1.1007 0.84666 0.49107 1.5579 0.9144 0.11853 0.06773 0.13547 0.1524 0.01693 0.08467-0.01693 0.16933-0.03387 0.06773-0.11853 0.11853-0.08467 0.03387-0.18627-0.01693-0.42333-0.2032-0.79587-0.4064-0.37253-0.22013-0.77893-0.4572-0.38947-0.23707-0.82973-0.49106-0.44027-0.27093-0.99906-0.57573-0.01693 0.28787-0.03387 0.67733 0 0.37253 0 0.762 0 0.37253 0 0.7112 0.01693 0.33867 0.03387 0.54187-0.0508 0.0508-0.1524 0.06773-0.08467 0.01693-0.18627-0.03387-0.08467-0.06773-0.1524-0.2032-0.0508-0.13547-0.03387-0.38947 0.03387-0.79586 0.01693-1.3716-0.01693-0.59267 0.01693-0.93133z"/>
<path d="m74.758 58.698q-0.38947-0.1524-0.59267-0.49107-0.18627-0.3556-0.2032-0.77893-0.01693-0.44027 0.11853-0.88053 0.13547-0.4572 0.37253-0.8128 0.254-0.3556 0.59267-0.5588 0.33867-0.22013 0.72813-0.16933 0.44027 0.0508 0.47413 0.42333 0.0508 0.3556-0.18627 0.8128-0.23707 0.44027-0.69426 0.82973-0.4572 0.38947-1.016 0.49107 0.03387 0.16933 0.1016 0.4064 0.08467 0.22013 0.3048 0.3556 0.27093 0.1524 0.64346 0.01693 0.37253-0.1524 0.74506-0.44026 0.38947-0.3048 0.72813-0.67733 0.3556-0.37253 0.57573-0.6604 0.06773-0.08467 0.1524 0.01693 0.1016 0.1016-0.08467 0.33867-0.2032 0.254-0.5588 0.6096-0.33867 0.3556-0.72813 0.6604-0.38947 0.3048-0.77893 0.47413-0.38947 0.1524-0.69426 0.03387zm-0.44027-1.4901q0.254 0.01693 0.57573-0.2032 0.32173-0.22013 0.57573-0.508 0.254-0.28787 0.37253-0.59267 0.13547-0.3048-0.01693-0.47413-0.18627-0.2032-0.4572-0.0508-0.27093 0.1524-0.52493 0.47413-0.23707 0.32173-0.4064 0.7112-0.1524 0.38947-0.11853 0.64346z"/>
<path d="m78.06 57.225q0.01693 0.254 0.0508 0.508 0.03387 0.23707 0.06773 0.508 0 0.08467-0.06773 0.1016-0.06773 0.01693-0.1524-0.01693-0.08467-0.03387-0.16933-0.11853-0.06773-0.08467-0.1016-0.18627-0.0508-0.13547-0.1016-0.38947-0.03387-0.27093-0.08467-0.5588-0.03387-0.3048-0.06773-0.57573-0.0508-0.28787-0.06773-0.4572-0.03387-0.08467 0.08467-0.08467 0.13547 0 0.3048 0.08467l0.08467 0.1524q0.1016-0.37253 0.27093-0.7112 0.18627-0.3556 0.44027-0.6096 0.254-0.27093 0.57573-0.42333 0.33867-0.1524 0.74506-0.13547 0.2032 0 0.23707 0.18627 0.03387 0.16933-0.1524 0.2032-0.0508 0.01693-0.13547 0.06773-0.06773 0.03387-0.1016 0.03387-0.01693 0-0.01693-0.0508t-0.03387-0.03387q-0.38947 0.03387-0.69427 0.32173-0.3048 0.28787-0.52493 0.69426-0.2032 0.38947-0.32173 0.8128-0.1016 0.4064-0.06773 0.67733z"/>
</g>
</g>
</svg>
